# xmcd CD database file
#
# Track frame offsets:
#	150
#	5290
#	26725
#	41700
#	62650
#	77950
#	96377
#	114490
#	137285
#	154912
#	179177
#	197875
#	231677
#	259807
#	287190
#	313385
#
# Disc length: 4398 seconds
#
# Revision: 1
# Processed by: cddbd v1.5.2PL0 Copyright (c) Steve Scherf et al.
# Submitted via: CDex 1.51
#
DISCID=f3112c10
DTITLE=Guru Josh - Infinity (2004)
DYEAR=1990
DGENRE=Techno
TTITLE0=Warehouse Requiem
TTITLE1=Lift Up Your Arms
TTITLE2=Whose Law (Is It Anyway)
TTITLE3=The Wanderer
TTITLE4=Powerforce
TTITLE5=Popcorn
TTITLE6=Infinity
TTITLE7=Move Your Body
TTITLE8=Crave It
TTITLE9=E-Minor Dim 7
TTITLE10=Louie Louie
TTITLE11=Infinity (1990s Time for the Guru 12" Mix)
TTITLE12=Infinity (Sane Mix)
TTITLE13=Whose Law (Is It Anyway) (12" Mix)
TTITLE14=Whose Law (Is It Anyway) (Speedball Mix)
TTITLE15=Warehouse Requiem (Extended Version)
EXTD=YEAR: 1990
EXTT0=
EXTT1=
EXTT2=
EXTT3=
EXTT4=
EXTT5=
EXTT6=
EXTT7=
EXTT8=
EXTT9=
EXTT10=
EXTT11=
EXTT12=
EXTT13=
EXTT14=
EXTT15=
PLAYORDER=
